<svg xmlns="http://www.w3.org/2000/svg" viewBox="0 0 400 240" fill="none">
  <rect width="400" height="240" fill="#f0faf4"/>
  <rect x="60" y="35" width="280" height="170" rx="12" fill="white" stroke="#c6e8d5" stroke-width="2"/>
  <rect x="60" y="35" width="280" height="32" rx="12" fill="#1a6b3a" opacity="0.1"/>
  <rect x="76" y="47" width="80" height="10" rx="5" fill="#1a6b3a" opacity="0.4"/>
  <rect x="76" y="82" width="120" height="90" rx="8" fill="#f0faf4" stroke="#c6e8d5"/>
  <rect x="86" y="128" width="16" height="34" rx="4" fill="#3ecf8e" opacity="0.5"/>
  <rect x="108" y="112" width="16" height="50" rx="4" fill="#1a6b3a" opacity="0.5"/>
  <rect x="130" y="120" width="16" height="42" rx="4" fill="#3ecf8e" opacity="0.4"/>
  <rect x="152" y="100" width="16" height="62" rx="4" fill="#1a6b3a" opacity="0.7"/>
  <rect x="174" y="108" width="16" height="54" rx="4" fill="#3ecf8e" opacity="0.6"/>
  <rect x="210" y="82" width="115" height="90" rx="8" fill="#f0faf4" stroke="#c6e8d5"/>
  <circle cx="267" cy="127" r="32" fill="none" stroke="#c6e8d5" stroke-width="12"/>
  <circle cx="267" cy="127" r="32" fill="none" stroke="#3ecf8e" stroke-width="12" stroke-dasharray="100 201" stroke-dashoffset="0"/>
  <rect x="248" y="122" width="38" height="10" rx="5" fill="#1a6b3a" opacity="0.4"/>
  <rect x="76" y="182" width="264" height="10" rx="5" fill="#c6e8d5" opacity="0.3"/>
</svg>
