<svg xmlns="http://www.w3.org/2000/svg" viewBox="0 0 400 240" fill="none">
  <rect width="400" height="240" fill="#f0faf4"/>
  <circle cx="200" cy="115" r="55" fill="white" stroke="#c6e8d5" stroke-width="2"/>
  <circle cx="200" cy="115" r="36" fill="#f0faf4" stroke="#1a6b3a" stroke-width="1.5" opacity="0.5"/>
  <circle cx="200" cy="115" r="16" fill="#3ecf8e" opacity="0.3"/>
  <path d="M200 79 L204 91 L216 91 L207 99 L210 111 L200 103 L190 111 L193 99 L184 91 L196 91Z" fill="#1a6b3a" opacity="0.5"/>
  <circle cx="200" cy="60" r="10" fill="#1a6b3a" opacity="0.2" stroke="#c6e8d5"/>
  <circle cx="245" cy="87" r="10" fill="#1a6b3a" opacity="0.2" stroke="#c6e8d5"/>
  <circle cx="245" cy="143" r="10" fill="#1a6b3a" opacity="0.2" stroke="#c6e8d5"/>
  <circle cx="200" cy="170" r="10" fill="#1a6b3a" opacity="0.2" stroke="#c6e8d5"/>
  <circle cx="155" cy="143" r="10" fill="#1a6b3a" opacity="0.2" stroke="#c6e8d5"/>
  <circle cx="155" cy="87" r="10" fill="#3ecf8e" opacity="0.4" stroke="#3ecf8e"/>
  <line x1="200" y1="70" x2="200" y2="79" stroke="#c6e8d5" stroke-width="2"/>
  <line x1="236" y1="93" x2="228" y2="99" stroke="#c6e8d5" stroke-width="2"/>
  <line x1="236" y1="137" x2="228" y2="131" stroke="#c6e8d5" stroke-width="2"/>
  <line x1="200" y1="160" x2="200" y2="151" stroke="#c6e8d5" stroke-width="2"/>
  <line x1="164" y1="137" x2="172" y2="131" stroke="#c6e8d5" stroke-width="2"/>
  <line x1="164" y1="93" x2="172" y2="99" stroke="#3ecf8e" stroke-width="2"/>
</svg>
