<svg xmlns="http://www.w3.org/2000/svg" viewBox="0 0 400 240" fill="none">
  <rect width="400" height="240" fill="#f0faf4"/>
  <!-- Monitor -->
  <rect x="80" y="40" width="240" height="150" rx="12" fill="#1a6b3a" opacity="0.12"/>
  <rect x="92" y="52" width="216" height="120" rx="8" fill="white"/>
  <rect x="170" y="190" width="60" height="12" rx="4" fill="#1a6b3a" opacity="0.2"/>
  <rect x="155" y="202" width="90" height="6" rx="3" fill="#1a6b3a" opacity="0.15"/>
  <!-- Chart bars -->
  <rect x="116" y="120" width="28" height="40" rx="4" fill="#3ecf8e" opacity="0.7"/>
  <rect x="156" y="95" width="28" height="65" rx="4" fill="#1a6b3a" opacity="0.7"/>
  <rect x="196" y="108" width="28" height="52" rx="4" fill="#3ecf8e" opacity="0.5"/>
  <rect x="236" y="80" width="28" height="80" rx="4" fill="#1a6b3a" opacity="0.9"/>
  <!-- Line chart -->
  <polyline points="116,118 144,93 184,106 224,78 264,90" stroke="#3ecf8e" stroke-width="2.5" fill="none" stroke-linecap="round" stroke-linejoin="round"/>
  <circle cx="116" cy="118" r="4" fill="#3ecf8e"/>
  <circle cx="144" cy="93" r="4" fill="#3ecf8e"/>
  <circle cx="184" cy="106" r="4" fill="#3ecf8e"/>
  <circle cx="224" cy="78" r="4" fill="#3ecf8e"/>
  <circle cx="264" cy="90" r="4" fill="#3ecf8e"/>
  <!-- Data rows -->
  <rect x="108" y="64" width="80" height="6" rx="3" fill="#c6e8d5"/>
  <rect x="196" y="64" width="50" height="6" rx="3" fill="#c6e8d5"/>
  <rect x="108" y="76" width="60" height="6" rx="3" fill="#c6e8d5" opacity="0.6"/>
</svg>
