<svg xmlns="http://www.w3.org/2000/svg" viewBox="0 0 400 240" fill="none">
  <rect width="400" height="240" fill="#f0faf4"/>
  <rect x="60" y="80" width="100" height="80" rx="10" fill="white" stroke="#c6e8d5" stroke-width="2" opacity="0.6"/>
  <rect x="70" y="95" width="80" height="8" rx="4" fill="#c6e8d5"/>
  <rect x="70" y="109" width="60" height="8" rx="4" fill="#c6e8d5" opacity="0.6"/>
  <rect x="70" y="123" width="70" height="8" rx="4" fill="#c6e8d5" opacity="0.4"/>
  <path d="M168 120 L200 120" stroke="#3ecf8e" stroke-width="3"/>
  <polygon points="196,114 208,120 196,126" fill="#3ecf8e"/>
  <rect x="210" y="60" width="130" height="120" rx="12" fill="white" stroke="#1a6b3a" stroke-width="2"/>
  <rect x="210" y="60" width="130" height="36" rx="12" fill="#1a6b3a" opacity="0.15"/>
  <rect x="222" y="73" width="70" height="10" rx="5" fill="#1a6b3a" opacity="0.5"/>
  <rect x="222" y="110" width="106" height="8" rx="4" fill="#3ecf8e" opacity="0.4"/>
  <rect x="222" y="124" width="90" height="8" rx="4" fill="#c6e8d5"/>
  <rect x="222" y="138" width="106" height="8" rx="4" fill="#c6e8d5" opacity="0.5"/>
  <circle cx="315" cy="155" r="12" fill="#3ecf8e" opacity="0.3"/>
  <path d="M309 155 L314 160 L322 150" stroke="#1a6b3a" stroke-width="2" stroke-linecap="round" stroke-linejoin="round"/>
</svg>
