<svg xmlns="http://www.w3.org/2000/svg" viewBox="0 0 400 240" fill="none">
  <rect width="400" height="240" fill="#f0faf4"/>
  <rect x="80" y="50" width="240" height="140" rx="12" fill="white" stroke="#c6e8d5" stroke-width="2"/>
  <rect x="80" y="50" width="240" height="36" rx="12" fill="#1a6b3a" opacity="0.12"/>
  <rect x="96" y="62" width="100" height="12" rx="6" fill="#1a6b3a" opacity="0.4"/>
  <path d="M110 110 L140 80 L170 95 L210 70 L250 85 L280 65" stroke="#3ecf8e" stroke-width="2.5" fill="none" stroke-linecap="round" stroke-linejoin="round"/>
  <circle cx="110" cy="110" r="4" fill="#3ecf8e"/>
  <circle cx="140" cy="80" r="4" fill="#3ecf8e"/>
  <circle cx="170" cy="95" r="4" fill="#3ecf8e"/>
  <circle cx="210" cy="70" r="4" fill="#3ecf8e"/>
  <circle cx="250" cy="85" r="4" fill="#3ecf8e"/>
  <circle cx="280" cy="65" r="5" fill="#1a6b3a" opacity="0.8"/>
  <rect x="96" y="125" width="60" height="8" rx="4" fill="#c6e8d5"/>
  <rect x="96" y="139" width="90" height="8" rx="4" fill="#c6e8d5" opacity="0.6"/>
  <rect x="96" y="153" width="70" height="8" rx="4" fill="#c6e8d5" opacity="0.4"/>
  <rect x="220" y="125" width="80" height="40" rx="8" fill="#3ecf8e" opacity="0.15" stroke="#c6e8d5"/>
  <rect x="230" y="135" width="60" height="8" rx="4" fill="#1a6b3a" opacity="0.3"/>
  <rect x="230" y="149" width="40" height="8" rx="4" fill="#3ecf8e" opacity="0.5"/>
</svg>
