<svg xmlns="http://www.w3.org/2000/svg" viewBox="0 0 400 240" fill="none">
  <rect width="400" height="240" fill="#f0faf4"/>
  <rect x="60" y="50" width="280" height="140" rx="12" fill="#0d2b1f"/>
  <rect x="60" y="50" width="280" height="30" rx="12" fill="#1a6b3a" opacity="0.5"/>
  <circle cx="78" cy="65" r="5" fill="#ff5f57" opacity="0.8"/>
  <circle cx="94" cy="65" r="5" fill="#febc2e" opacity="0.8"/>
  <circle cx="110" cy="65" r="5" fill="#28c840" opacity="0.8"/>
  <rect x="78" y="94" width="24" height="7" rx="3" fill="#3ecf8e" opacity="0.8"/>
  <rect x="108" y="94" width="80" height="7" rx="3" fill="white" opacity="0.4"/>
  <rect x="78" y="108" width="16" height="7" rx="3" fill="#c6e8d5" opacity="0.5"/>
  <rect x="100" y="108" width="60" height="7" rx="3" fill="#3ecf8e" opacity="0.4"/>
  <rect x="78" y="122" width="20" height="7" rx="3" fill="#3ecf8e" opacity="0.6"/>
  <rect x="104" y="122" width="100" height="7" rx="3" fill="white" opacity="0.3"/>
  <rect x="78" y="136" width="24" height="7" rx="3" fill="#c6e8d5" opacity="0.4"/>
  <rect x="108" y="136" width="70" height="7" rx="3" fill="white" opacity="0.25"/>
  <rect x="78" y="150" width="16" height="7" rx="3" fill="#3ecf8e" opacity="0.7"/>
  <rect x="100" y="150" width="90" height="7" rx="3" fill="white" opacity="0.3"/>
  <rect x="240" y="94" width="80" height="60" rx="8" fill="#1a6b3a" opacity="0.3"/>
  <rect x="248" y="104" width="64" height="8" rx="4" fill="#3ecf8e" opacity="0.5"/>
  <rect x="248" y="118" width="48" height="8" rx="4" fill="white" opacity="0.2"/>
  <rect x="248" y="132" width="56" height="8" rx="4" fill="#3ecf8e" opacity="0.3"/>
</svg>
