<svg width="800" height="560" viewBox="0 0 800 560" fill="none" xmlns="http://www.w3.org/2000/svg">
  <rect width="800" height="560" rx="32" fill="#f0faf4"/>
  <circle cx="680" cy="80" r="90" fill="#c6e8d5" opacity="0.5"/>
  <circle cx="120" cy="460" r="70" fill="#3ecf8e" opacity="0.15"/>
  <ellipse cx="400" cy="510" rx="320" ry="28" fill="#1a6b3a" opacity="0.12"/>
  <rect x="200" y="280" width="400" height="220" rx="20" fill="#0d2b1f"/>
  <rect x="220" y="296" width="360" height="188" rx="12" fill="#1a6b3a"/>
  <rect x="244" y="316" width="120" height="10" rx="5" fill="#3ecf8e" opacity="0.9"/>
  <rect x="244" y="336" width="200" height="8" rx="4" fill="#c6e8d5" opacity="0.7"/>
  <rect x="244" y="354" width="160" height="8" rx="4" fill="#c6e8d5" opacity="0.7"/>
  <rect x="244" y="372" width="220" height="8" rx="4" fill="#c6e8d5" opacity="0.5"/>
  <rect x="244" y="390" width="100" height="8" rx="4" fill="#3ecf8e" opacity="0.6"/>
  <rect x="244" y="408" width="180" height="8" rx="4" fill="#c6e8d5" opacity="0.5"/>
  <rect x="244" y="426" width="140" height="8" rx="4" fill="#c6e8d5" opacity="0.4"/>
  <rect x="90" y="320" width="16" height="130" rx="8" fill="#1a6b3a"/>
  <ellipse cx="70" cy="340" rx="38" ry="18" fill="#3ecf8e" transform="rotate(-30 70 340)"/>
  <ellipse cx="118" cy="360" rx="35" ry="16" fill="#1a6b3a" transform="rotate(25 118 360)"/>
  <ellipse cx="62" cy="390" rx="30" ry="14" fill="#3ecf8e" opacity="0.7" transform="rotate(-15 62 390)"/>
  <rect x="680" y="350" width="14" height="110" rx="7" fill="#1a6b3a"/>
  <ellipse cx="660" cy="370" rx="32" ry="14" fill="#3ecf8e" transform="rotate(20 660 370)"/>
  <ellipse cx="702" cy="390" rx="28" ry="13" fill="#1a6b3a" transform="rotate(-25 702 390)"/>
  <rect x="60" y="140" width="180" height="80" rx="14" fill="white" opacity="0.95"/>
  <rect x="76" y="158" width="80" height="10" rx="5" fill="#0d2b1f"/>
  <rect x="76" y="178" width="130" height="8" rx="4" fill="#c6e8d5"/>
  <rect x="76" y="196" width="100" height="8" rx="4" fill="#c6e8d5"/>
  <circle cx="228" cy="163" r="6" fill="#3ecf8e"/>
  <rect x="560" y="120" width="170" height="80" rx="14" fill="white" opacity="0.95"/>
  <rect x="578" y="138" width="50" height="26" rx="6" fill="#3ecf8e" opacity="0.2"/>
  <rect x="640" y="143" width="70" height="10" rx="5" fill="#0d2b1f"/>
  <rect x="578" y="176" width="120" height="8" rx="4" fill="#c6e8d5"/>
  <text x="586" y="157" font-size="11" font-weight="700" fill="#1a6b3a" font-family="system-ui">120+</text>
  <polygon points="500,200 510,230 515,220 525,228 520,218 530,213" fill="#3ecf8e"/>
  <circle cx="400" cy="100" r="5" fill="#3ecf8e" opacity="0.6"/>
  <circle cx="440" cy="80" r="4" fill="#1a6b3a" opacity="0.5"/>
  <circle cx="360" cy="90" r="3" fill="#3ecf8e" opacity="0.4"/>
  <line x1="400" y1="100" x2="440" y2="80" stroke="#3ecf8e" stroke-width="1" opacity="0.3"/>
  <line x1="400" y1="100" x2="360" y2="90" stroke="#3ecf8e" stroke-width="1" opacity="0.3"/>
</svg>
