<svg xmlns="http://www.w3.org/2000/svg" viewBox="0 0 400 240" fill="none">
  <rect width="400" height="240" fill="#f0faf4"/>
  <rect x="60" y="35" width="280" height="170" rx="12" fill="white" stroke="#c6e8d5" stroke-width="2"/>
  <rect x="60" y="35" width="80" height="170" rx="12" fill="#1a6b3a" opacity="0.08"/>
  <rect x="72" y="55" width="56" height="10" rx="5" fill="#1a6b3a" opacity="0.4"/>
  <rect x="72" y="72" width="56" height="8" rx="4" fill="#c6e8d5"/>
  <rect x="72" y="86" width="56" height="8" rx="4" fill="#3ecf8e" opacity="0.5"/>
  <rect x="72" y="100" width="56" height="8" rx="4" fill="#c6e8d5" opacity="0.6"/>
  <rect x="72" y="114" width="56" height="8" rx="4" fill="#c6e8d5" opacity="0.4"/>
  <rect x="72" y="128" width="56" height="8" rx="4" fill="#c6e8d5" opacity="0.5"/>
  <rect x="155" y="50" width="170" height="70" rx="8" fill="#f0faf4" stroke="#c6e8d5"/>
  <rect x="165" y="60" width="100" height="10" rx="5" fill="#1a6b3a" opacity="0.4"/>
  <rect x="165" y="76" width="140" height="8" rx="4" fill="#c6e8d5" opacity="0.5"/>
  <rect x="165" y="90" width="120" height="8" rx="4" fill="#c6e8d5" opacity="0.4"/>
  <rect x="155" y="135" width="75" height="60" rx="8" fill="#3ecf8e" opacity="0.12" stroke="#c6e8d5"/>
  <circle cx="192" cy="158" r="14" fill="#1a6b3a" opacity="0.12"/>
  <path d="M184 158 L191 165 L202 151" stroke="#1a6b3a" stroke-width="2.5" stroke-linecap="round" stroke-linejoin="round"/>
  <rect x="245" y="135" width="80" height="60" rx="8" fill="#1a6b3a" opacity="0.08" stroke="#c6e8d5"/>
  <rect x="255" y="148" width="60" height="8" rx="4" fill="#c6e8d5"/>
  <rect x="255" y="162" width="42" height="8" rx="4" fill="#3ecf8e" opacity="0.5"/>
  <rect x="255" y="176" width="52" height="8" rx="4" fill="#c6e8d5" opacity="0.4"/>
</svg>
