<svg xmlns="http://www.w3.org/2000/svg" viewBox="0 0 400 240" fill="none">
  <rect width="400" height="240" fill="#f0faf4"/>
  <!-- Phone -->
  <rect x="150" y="20" width="100" height="200" rx="18" fill="white" stroke="#c6e8d5" stroke-width="2"/>
  <rect x="162" y="36" width="76" height="168" rx="8" fill="#f0faf4"/>
  <circle cx="200" cy="28" r="4" fill="#c6e8d5"/>
  <!-- Hero block inside phone -->
  <rect x="162" y="36" width="76" height="50" rx="8" fill="#1a6b3a" opacity="0.15"/>
  <rect x="172" y="50" width="56" height="7" rx="3" fill="#1a6b3a" opacity="0.5"/>
  <rect x="178" y="62" width="44" height="5" rx="2" fill="#1a6b3a" opacity="0.3"/>
  <!-- CTA button -->
  <rect x="178" y="72" width="44" height="12" rx="6" fill="#3ecf8e" opacity="0.8"/>
  <!-- Content rows -->
  <rect x="168" y="96" width="64" height="6" rx="3" fill="#c6e8d5"/>
  <rect x="168" y="108" width="50" height="6" rx="3" fill="#c6e8d5" opacity="0.6"/>
  <rect x="168" y="120" width="58" height="6" rx="3" fill="#c6e8d5" opacity="0.4"/>
  <!-- Cards -->
  <rect x="168" y="136" width="28" height="28" rx="6" fill="#1a6b3a" opacity="0.12"/>
  <rect x="202" y="136" width="28" height="28" rx="6" fill="#3ecf8e" opacity="0.2"/>
  <!-- Nav dots -->
  <circle cx="194" cy="196" r="3" fill="#1a6b3a" opacity="0.4"/>
  <circle cx="200" cy="196" r="3" fill="#1a6b3a" opacity="0.8"/>
  <circle cx="206" cy="196" r="3" fill="#1a6b3a" opacity="0.4"/>
  <!-- Decorative stars -->
  <circle cx="80" cy="60" r="5" fill="#3ecf8e" opacity="0.4"/>
  <circle cx="320" cy="80" r="7" fill="#3ecf8e" opacity="0.3"/>
  <circle cx="70" cy="170" r="4" fill="#1a6b3a" opacity="0.2"/>
  <circle cx="330" cy="160" r="5" fill="#1a6b3a" opacity="0.2"/>
</svg>
