<svg xmlns="http://www.w3.org/2000/svg" viewBox="0 0 400 240" fill="none">
  <rect width="400" height="240" fill="#f0faf4"/>
  <rect x="70" y="40" width="260" height="160" rx="12" fill="white" stroke="#c6e8d5" stroke-width="2"/>
  <rect x="70" y="40" width="260" height="36" rx="12" fill="#1a6b3a" opacity="0.1"/>
  <rect x="88" y="52" width="90" height="12" rx="6" fill="#1a6b3a" opacity="0.4"/>
  <rect x="88" y="90" width="160" height="8" rx="4" fill="#c6e8d5"/>
  <rect x="88" y="104" width="200" height="8" rx="4" fill="#3ecf8e" opacity="0.4"/>
  <rect x="88" y="118" width="140" height="8" rx="4" fill="#c6e8d5" opacity="0.6"/>
  <rect x="88" y="140" width="100" height="30" rx="8" fill="#3ecf8e" opacity="0.15" stroke="#c6e8d5"/>
  <rect x="98" y="150" width="80" height="8" rx="4" fill="#1a6b3a" opacity="0.3"/>
  <rect x="204" y="140" width="100" height="30" rx="8" fill="#1a6b3a" opacity="0.08" stroke="#c6e8d5"/>
  <rect x="214" y="150" width="80" height="8" rx="4" fill="#c6e8d5"/>
  <circle cx="296" cy="90" r="26" fill="#3ecf8e" opacity="0.12" stroke="#c6e8d5"/>
  <path d="M286 90 L293 97 L308 81" stroke="#1a6b3a" stroke-width="2.5" stroke-linecap="round" stroke-linejoin="round"/>
</svg>
