<svg xmlns="http://www.w3.org/2000/svg" viewBox="0 0 400 240" fill="none">
  <rect width="400" height="240" fill="#f0faf4"/>
  <!-- Editor window -->
  <rect x="50" y="30" width="300" height="180" rx="12" fill="#0d2b1f"/>
  <rect x="50" y="30" width="300" height="32" rx="12" fill="#1a6b3a" opacity="0.6"/>
  <circle cx="72" cy="46" r="5" fill="#ff5f57" opacity="0.8"/>
  <circle cx="88" cy="46" r="5" fill="#febc2e" opacity="0.8"/>
  <circle cx="104" cy="46" r="5" fill="#28c840" opacity="0.8"/>
  <!-- Code lines -->
  <rect x="70" y="76" width="30" height="7" rx="3" fill="#3ecf8e" opacity="0.9"/>
  <rect x="106" y="76" width="50" height="7" rx="3" fill="#c6e8d5" opacity="0.6"/>
  <rect x="162" y="76" width="20" height="7" rx="3" fill="#3ecf8e" opacity="0.5"/>

  <rect x="84" y="92" width="20" height="7" rx="3" fill="#3ecf8e" opacity="0.7"/>
  <rect x="110" y="92" width="70" height="7" rx="3" fill="white" opacity="0.5"/>
  <rect x="186" y="92" width="30" height="7" rx="3" fill="#3ecf8e" opacity="0.4"/>

  <rect x="84" y="108" width="40" height="7" rx="3" fill="#c6e8d5" opacity="0.5"/>
  <rect x="130" y="108" width="60" height="7" rx="3" fill="white" opacity="0.4"/>

  <rect x="84" y="124" width="25" height="7" rx="3" fill="#3ecf8e" opacity="0.6"/>
  <rect x="115" y="124" width="45" height="7" rx="3" fill="white" opacity="0.3"/>
  <rect x="166" y="124" width="30" height="7" rx="3" fill="#c6e8d5" opacity="0.5"/>

  <rect x="70" y="140" width="20" height="7" rx="3" fill="#3ecf8e" opacity="0.8"/>
  <rect x="96" y="140" width="80" height="7" rx="3" fill="white" opacity="0.3"/>

  <rect x="70" y="156" width="100" height="7" rx="3" fill="#c6e8d5" opacity="0.3"/>
  <rect x="176" y="156" width="40" height="7" rx="3" fill="#3ecf8e" opacity="0.5"/>
  <!-- Checkmark badge -->
  <circle cx="310" cy="185" r="22" fill="#3ecf8e" opacity="0.2"/>
  <circle cx="310" cy="185" r="16" fill="#3ecf8e" opacity="0.6"/>
  <path d="M302 185 L308 191 L320 178" stroke="white" stroke-width="3" stroke-linecap="round" stroke-linejoin="round"/>
</svg>
