<svg xmlns="http://www.w3.org/2000/svg" viewBox="0 0 400 240" fill="none">
  <rect width="400" height="240" fill="#f0faf4"/>
  <rect x="70" y="60" width="260" height="80" rx="10" fill="white" stroke="#c6e8d5" stroke-width="2"/>
  <rect x="80" y="72" width="120" height="12" rx="6" fill="#1a6b3a" opacity="0.4"/>
  <rect x="80" y="90" width="200" height="8" rx="4" fill="#c6e8d5"/>
  <rect x="80" y="104" width="160" height="8" rx="4" fill="#c6e8d5" opacity="0.6"/>
  <rect x="80" y="118" width="180" height="8" rx="4" fill="#c6e8d5" opacity="0.4"/>
  <circle cx="310" cy="100" r="20" fill="#3ecf8e" opacity="0.2" stroke="#3ecf8e" stroke-width="1.5"/>
  <path d="M302 100 L309 107 L320 93" stroke="#1a6b3a" stroke-width="2.5" stroke-linecap="round" stroke-linejoin="round"/>
  <rect x="70" y="160" width="75" height="50" rx="8" fill="#1a6b3a" opacity="0.1" stroke="#c6e8d5"/>
  <rect x="80" y="170" width="55" height="8" rx="4" fill="#1a6b3a" opacity="0.4"/>
  <rect x="80" y="184" width="40" height="8" rx="4" fill="#3ecf8e" opacity="0.5"/>
  <rect x="163" y="160" width="75" height="50" rx="8" fill="#1a6b3a" opacity="0.1" stroke="#c6e8d5"/>
  <rect x="173" y="170" width="55" height="8" rx="4" fill="#1a6b3a" opacity="0.4"/>
  <rect x="173" y="184" width="40" height="8" rx="4" fill="#3ecf8e" opacity="0.5"/>
  <rect x="255" y="160" width="75" height="50" rx="8" fill="#1a6b3a" opacity="0.1" stroke="#c6e8d5"/>
  <rect x="265" y="170" width="55" height="8" rx="4" fill="#1a6b3a" opacity="0.4"/>
  <rect x="265" y="184" width="40" height="8" rx="4" fill="#3ecf8e" opacity="0.5"/>
  <line x1="107" y1="140" x2="107" y2="160" stroke="#c6e8d5" stroke-width="2"/>
  <line x1="200" y1="140" x2="200" y2="160" stroke="#c6e8d5" stroke-width="2"/>
  <line x1="292" y1="140" x2="292" y2="160" stroke="#c6e8d5" stroke-width="2"/>
</svg>
