<svg xmlns="http://www.w3.org/2000/svg" viewBox="0 0 400 240" fill="none">
  <rect width="400" height="240" fill="#f0faf4"/>
  <rect x="60" y="40" width="280" height="160" rx="12" fill="white" stroke="#c6e8d5" stroke-width="2"/>
  <rect x="60" y="40" width="280" height="40" rx="12" fill="#1a6b3a" opacity="0.1"/>
  <rect x="80" y="54" width="80" height="12" rx="6" fill="#1a6b3a" opacity="0.4"/>
  <rect x="310" y="54" width="12" height="12" rx="3" fill="#3ecf8e" opacity="0.6"/>
  <rect x="80" y="98" width="60" height="8" rx="4" fill="#c6e8d5"/>
  <rect x="80" y="112" width="100" height="8" rx="4" fill="#c6e8d5" opacity="0.6"/>
  <rect x="80" y="126" width="80" height="8" rx="4" fill="#c6e8d5" opacity="0.4"/>
  <rect x="80" y="148" width="50" height="8" rx="4" fill="#c6e8d5"/>
  <rect x="80" y="162" width="90" height="8" rx="4" fill="#c6e8d5" opacity="0.5"/>
  <rect x="220" y="98" width="100" height="80" rx="8" fill="#3ecf8e" opacity="0.12" stroke="#c6e8d5"/>
  <circle cx="270" cy="128" r="20" fill="#1a6b3a" opacity="0.1"/>
  <path d="M258 128 L266 136 L282 120" stroke="#1a6b3a" stroke-width="2.5" stroke-linecap="round" stroke-linejoin="round"/>
  <rect x="230" y="155" width="80" height="8" rx="4" fill="#c6e8d5" opacity="0.5"/>
</svg>
