<svg xmlns="http://www.w3.org/2000/svg" viewBox="0 0 400 240" fill="none">
  <rect width="400" height="240" fill="#f0faf4"/>
  <rect x="110" y="30" width="180" height="130" rx="12" fill="white" stroke="#c6e8d5" stroke-width="2"/>
  <rect x="110" y="30" width="180" height="32" rx="12" fill="#1a6b3a" opacity="0.1"/>
  <circle cx="128" cy="46" r="5" fill="#1a6b3a" opacity="0.3"/>
  <circle cx="144" cy="46" r="5" fill="#1a6b3a" opacity="0.3"/>
  <rect x="160" y="40" width="80" height="12" rx="6" fill="#f0faf4"/>
  <rect x="122" y="74" width="156" height="50" rx="8" fill="#3ecf8e" opacity="0.15"/>
  <rect x="132" y="84" width="80" height="10" rx="5" fill="#1a6b3a" opacity="0.4"/>
  <rect x="132" y="100" width="56" height="10" rx="5" fill="#1a6b3a" opacity="0.25"/>
  <rect x="222" y="82" width="44" height="22" rx="6" fill="#3ecf8e" opacity="0.5"/>
  <rect x="122" y="136" width="70" height="10" rx="5" fill="#c6e8d5"/>
  <rect x="200" y="136" width="50" height="10" rx="5" fill="#c6e8d5" opacity="0.5"/>
  <line x1="155" y1="160" x2="130" y2="185" stroke="#c6e8d5" stroke-width="2"/>
  <line x1="245" y1="160" x2="270" y2="185" stroke="#c6e8d5" stroke-width="2"/>
  <rect x="80" y="185" width="100" height="28" rx="8" fill="white" stroke="#c6e8d5"/>
  <rect x="88" y="193" width="60" height="8" rx="4" fill="#c6e8d5" opacity="0.5"/>
  <rect x="220" y="185" width="100" height="28" rx="8" fill="white" stroke="#c6e8d5"/>
  <rect x="228" y="193" width="60" height="8" rx="4" fill="#c6e8d5" opacity="0.5"/>
</svg>
