<svg xmlns="http://www.w3.org/2000/svg" viewBox="0 0 400 240" fill="none">
  <rect width="400" height="240" fill="#f0faf4"/>
  <circle cx="200" cy="120" r="70" fill="#1a6b3a" opacity="0.08"/>
  <path d="M160 100 Q200 60 240 100 Q260 130 200 170 Q140 130 160 100Z" fill="#3ecf8e" opacity="0.25" stroke="#1a6b3a" stroke-width="1.5"/>
  <circle cx="200" cy="115" r="22" fill="white" stroke="#c6e8d5" stroke-width="2"/>
  <path d="M189 115 L197 123 L213 107" stroke="#1a6b3a" stroke-width="3" stroke-linecap="round" stroke-linejoin="round"/>
  <rect x="100" y="80" width="48" height="8" rx="4" fill="#c6e8d5" opacity="0.6"/>
  <rect x="100" y="94" width="34" height="8" rx="4" fill="#c6e8d5" opacity="0.4"/>
  <rect x="252" y="80" width="48" height="8" rx="4" fill="#c6e8d5" opacity="0.6"/>
  <rect x="252" y="94" width="34" height="8" rx="4" fill="#c6e8d5" opacity="0.4"/>
  <line x1="148" y1="84" x2="178" y2="100" stroke="#3ecf8e" stroke-width="1.5" stroke-dasharray="3 2"/>
  <line x1="252" y1="84" x2="222" y2="100" stroke="#3ecf8e" stroke-width="1.5" stroke-dasharray="3 2"/>
  <rect x="130" y="175" width="140" height="28" rx="8" fill="#1a6b3a" opacity="0.08"/>
  <rect x="142" y="183" width="50" height="12" rx="6" fill="#3ecf8e" opacity="0.6"/>
  <rect x="200" y="183" width="58" height="12" rx="6" fill="#c6e8d5" opacity="0.5"/>
</svg>
