<svg xmlns="http://www.w3.org/2000/svg" viewBox="0 0 400 240" fill="none">
  <rect width="400" height="240" fill="#f0faf4"/>
  <rect x="80" y="45" width="240" height="150" rx="12" fill="white" stroke="#c6e8d5" stroke-width="2"/>
  <rect x="80" y="45" width="240" height="36" rx="12" fill="#1a6b3a" opacity="0.1"/>
  <rect x="96" y="57" width="80" height="12" rx="6" fill="#1a6b3a" opacity="0.4"/>
  <rect x="96" y="96" width="208" height="8" rx="4" fill="#c6e8d5"/>
  <rect x="96" y="110" width="180" height="8" rx="4" fill="#c6e8d5" opacity="0.6"/>
  <rect x="96" y="124" width="200" height="8" rx="4" fill="#c6e8d5" opacity="0.4"/>
  <rect x="96" y="150" width="80" height="28" rx="8" fill="#3ecf8e" opacity="0.2" stroke="#3ecf8e" stroke-width="1.5"/>
  <rect x="104" y="160" width="60" height="8" rx="4" fill="#1a6b3a" opacity="0.5"/>
  <rect x="194" y="150" width="80" height="28" rx="8" fill="#c6e8d5" opacity="0.3" stroke="#c6e8d5"/>
  <rect x="202" y="160" width="60" height="8" rx="4" fill="#1a6b3a" opacity="0.3"/>
  <circle cx="306" cy="80" r="24" fill="#3ecf8e" opacity="0.2"/>
  <path d="M296 80 L303 87 L318 71" stroke="#1a6b3a" stroke-width="3" stroke-linecap="round" stroke-linejoin="round"/>
</svg>
