<svg width="800" height="600" viewBox="0 0 800 600" fill="none" xmlns="http://www.w3.org/2000/svg">
  <rect width="800" height="600" rx="40" fill="#F3F6FB"/>
  <circle cx="140" cy="120" r="80" fill="#C7D2FE"/>
  <circle cx="680" cy="130" r="60" fill="#A5F3FC"/>
  <rect x="120" y="220" width="560" height="280" rx="28" fill="#FFFFFF" stroke="#E2E8F0"/>
  <rect x="160" y="260" width="220" height="18" rx="9" fill="#E2E8F0"/>
  <rect x="160" y="295" width="360" height="12" rx="6" fill="#E2E8F0"/>
  <rect x="160" y="320" width="320" height="12" rx="6" fill="#E2E8F0"/>
  <rect x="160" y="360" width="480" height="120" rx="20" fill="#0B1F3B"/>
  <rect x="190" y="385" width="180" height="14" rx="7" fill="#94A3B8"/>
  <rect x="190" y="410" width="260" height="10" rx="5" fill="#94A3B8"/>
  <rect x="190" y="430" width="220" height="10" rx="5" fill="#94A3B8"/>
  <rect x="470" y="385" width="140" height="70" rx="14" fill="#1F5BFF"/>
  <circle cx="610" cy="520" r="40" fill="#C7D2FE"/>
  <circle cx="220" cy="520" r="30" fill="#A5F3FC"/>
</svg>
